<svg width="40" height="40" viewBox="0 0 40 40" fill="none" xmlns="http://www.w3.org/2000/svg">
<rect width="40" height="40" rx="11" fill="url(#paint0_linear_4_3990)"/>
<g clip-path="url(#clip0_4_3990)">
<path d="M20 13C20.0011 12.6 19.9223 12.2039 19.7681 11.8348C19.614 11.4657 19.3876 11.1312 19.1022 10.8509C18.8169 10.5707 18.4784 10.3503 18.1066 10.2027C17.7348 10.0552 17.3373 9.98347 16.9374 9.9918C16.5376 10.0001 16.1434 10.0884 15.7781 10.2513C15.4128 10.4142 15.0838 10.6485 14.8104 10.9404C14.5369 11.2323 14.3247 11.576 14.186 11.9511C14.0473 12.3263 13.9851 12.7254 14.003 13.125C13.4152 13.2761 12.8695 13.559 12.4072 13.9523C11.9449 14.3456 11.5782 14.8389 11.3348 15.3948C11.0914 15.9508 10.9777 16.5549 11.0023 17.1613C11.027 17.7677 11.1893 18.3606 11.477 18.895C10.9711 19.3059 10.5734 19.8342 10.3183 20.4339C10.0632 21.0336 9.95851 21.6866 10.0133 22.336C10.0681 22.9854 10.2808 23.6115 10.6328 24.16C10.9847 24.7085 11.4654 25.1626 12.033 25.483C11.9629 26.0252 12.0047 26.5761 12.1558 27.1015C12.307 27.627 12.5642 28.1158 12.9117 28.5379C13.2592 28.9601 13.6896 29.3065 14.1762 29.5557C14.6628 29.805 15.1953 29.9519 15.7409 29.9873C16.2865 30.0227 16.8336 29.9459 17.3483 29.7616C17.8631 29.5773 18.3346 29.2894 18.7337 28.9157C19.1328 28.5421 19.4511 28.0906 19.6689 27.5891C19.8867 27.0876 19.9994 26.5467 20 26V13Z" stroke="white" stroke-width="2" stroke-linecap="round" stroke-linejoin="round"/>
<path d="M20 13C19.9988 12.6 20.0776 12.2039 20.2318 11.8348C20.386 11.4657 20.6124 11.1312 20.8977 10.8509C21.1831 10.5707 21.5216 10.3503 21.8934 10.2027C22.2651 10.0552 22.6626 9.98347 23.0625 9.9918C23.4624 10.0001 23.8566 10.0884 24.2219 10.2513C24.5872 10.4142 24.9162 10.6485 25.1896 10.9404C25.463 11.2323 25.6753 11.576 25.814 11.9511C25.9526 12.3263 26.0149 12.7254 25.997 13.125C26.5848 13.2761 27.1305 13.559 27.5928 13.9523C28.0551 14.3456 28.4218 14.8389 28.6652 15.3948C28.9086 15.9508 29.0223 16.5549 28.9976 17.1613C28.973 17.7677 28.8107 18.3606 28.523 18.895C29.0288 19.3059 29.4266 19.8342 29.6817 20.4339C29.9368 21.0336 30.0415 21.6866 29.9867 22.336C29.9318 22.9854 29.7192 23.6115 29.3672 24.16C29.0152 24.7085 28.5345 25.1626 27.967 25.483C28.0371 26.0252 27.9953 26.5761 27.8441 27.1015C27.693 27.627 27.4357 28.1158 27.0882 28.5379C26.7407 28.9601 26.3104 29.3065 25.8238 29.5557C25.3372 29.805 24.8046 29.9519 24.259 29.9873C23.7134 30.0227 23.1664 29.9459 22.6516 29.7616C22.1369 29.5773 21.6654 29.2894 21.2663 28.9157C20.8671 28.5421 20.5488 28.0906 20.331 27.5891C20.1133 27.0876 20.0006 26.5467 20 26V13Z" stroke="white" stroke-width="2" stroke-linecap="round" stroke-linejoin="round"/>
<path d="M23 21C22.1604 20.7047 21.4273 20.167 20.8933 19.455C20.3593 18.743 20.0485 17.8887 20 17C19.9515 17.8887 19.6407 18.743 19.1067 19.455C18.5727 20.167 17.8396 20.7047 17 21" stroke="white" stroke-width="2" stroke-linecap="round" stroke-linejoin="round"/>
<path d="M25.599 14.5C25.841 14.0806 25.9779 13.6088 25.998 13.125" stroke="white" stroke-width="2" stroke-linecap="round" stroke-linejoin="round"/>
<path d="M14.0031 13.125C14.0228 13.6087 14.1594 14.0805 14.4011 14.5" stroke="white" stroke-width="2" stroke-linecap="round" stroke-linejoin="round"/>
<path d="M11.4771 18.896C11.66 18.747 11.8558 18.6145 12.0621 18.5" stroke="white" stroke-width="2" stroke-linecap="round" stroke-linejoin="round"/>
<path d="M27.938 18.5C28.1443 18.6145 28.34 18.747 28.523 18.896" stroke="white" stroke-width="2" stroke-linecap="round" stroke-linejoin="round"/>
<path d="M14 26C13.3108 26.0003 12.6332 25.8226 12.033 25.484" stroke="white" stroke-width="2" stroke-linecap="round" stroke-linejoin="round"/>
<path d="M27.967 25.484C27.3667 25.8226 26.6892 26.0003 26 26" stroke="white" stroke-width="2" stroke-linecap="round" stroke-linejoin="round"/>
</g>
<defs>
<linearGradient id="paint0_linear_4_3990" x1="6.36488" y1="-17.5094" x2="54.5395" y2="0.00270401" gradientUnits="userSpaceOnUse">
<stop stop-color="#7C3AED"/>
<stop offset="1" stop-color="#4F46E5"/>
</linearGradient>
<clipPath id="clip0_4_3990">
<rect width="24" height="24" fill="white" transform="translate(8 8)"/>
</clipPath>
</defs>
</svg>
